Coordinates
version=1
nRows=22
nColumns=24
inDegrees=yes

Units are S.I. units (second, meters, Newtons, ...)
Angles are in degrees.

endheader
time	pelvis_tilt	pelvis_list	pelvis_rotation	pelvis_tx	pelvis_ty	pelvis_tz	hip_flexion_r	hip_adduction_r	hip_rotation_r	knee_angle_r	ankle_angle_r	subtalar_angle_r	mtp_angle_r	hip_flexion_l	hip_adduction_l	hip_rotation_l	knee_angle_l	ankle_angle_l	subtalar_angle_l	mtp_angle_l	lumbar_extension	lumbar_bending	lumbar_rotation
      3.76000000	    -10.14022655	     -3.24358265	     12.26707294	     -1.25118206	     -0.04945632	      0.59999209	     38.42685355	     -3.07528285	    -20.72823809	    -14.34534809	     -1.07075309	      3.45430765	      2.85687486	     -4.84357769	     -0.85469044	     -4.56048284	    -16.42753223	     18.46578297	     17.86234027	      3.32229837	      6.52962983	      0.87847049	    -15.65056291
      3.76500000	    -10.13564347	     -3.60555044	     12.37267863	     -1.24390390	     -0.05071441	      0.60006023	     38.41954331	     -2.70372772	    -20.75028634	    -14.64549058	     -1.72843431	      3.13862779	      2.95392688	     -4.94315928	     -1.43934513	     -4.67272053	    -17.02452639	     18.42416398	     18.16652093	      3.71051136	      6.67013576	      1.28528337	    -15.82359541
      3.77000000	    -10.09473583	     -3.97899534	     12.39686060	     -1.23655258	     -0.05193173	      0.60024684	     38.40823768	     -2.26897540	    -20.70808498	    -15.03517438	     -2.62693281	      2.52385536	      3.41139151	     -5.07034272	     -2.05535941	     -4.97586027	    -17.65613986	     18.34641163	     18.54630874	      4.15537295	      6.77927504	      1.72437245	    -15.95335816
      3.77500000	    -10.07808295	     -4.35088560	     12.37218544	     -1.22914956	     -0.05310542	      0.60046590	     38.44193590	     -1.82837333	    -20.60973428	    -15.49696398	     -3.71909342	      1.79256637	      4.11006514	     -5.17347538	     -2.65674977	     -5.22438186	    -18.29681770	     18.18047668	     18.87335408	      4.60723190	      6.92084157	      2.16848565	    -15.94513483
      3.78000000	    -10.06149444	     -4.75297498	     12.31899360	     -1.22170935	     -0.05423951	      0.60065810	     38.49721475	     -1.36050938	    -20.42843640	    -16.03638893	     -4.88375327	      0.98603454	      4.84274007	     -5.24096630	     -3.28059335	     -5.48601147	    -19.00399554	     17.94914852	     19.07077949	      5.09136164	      7.07681103	      2.65995422	    -15.95809916
      3.78500000	    -10.05441864	     -5.15781915	     12.31611439	     -1.21431812	     -0.05525510	      0.60082590	     38.59121081	     -0.93494992	    -20.28303386	    -16.68955187	     -6.07719300	      0.06168095	      5.18663345	     -5.25812154	     -3.90534729	     -5.59032811	    -19.75838844	     17.62226422	     19.22276092	      5.53473607	      7.23526451	      3.14068899	    -16.00301753
      3.79000000	    -10.04564717	     -5.59059732	     12.25265574	     -1.20688436	     -0.05620881	      0.60103875	     38.71120758	     -0.45352102	    -20.03901946	    -17.41203766	     -7.24310656	     -0.95085533	      5.45314846	     -5.23938085	     -4.56288908	     -5.79318548	    -20.58788976	     17.20758928	     19.36347153	      6.08673591	      7.40291608	      3.66588881	    -15.99407736
      3.79500000	    -10.03734623	     -6.02992892	     12.16194423	     -1.19944208	     -0.05706866	      0.60127402	     38.85433019	      0.04489669	    -19.74267217	    -18.20570748	     -8.31125935	     -2.02324354	      5.58136124	     -5.18329690	     -5.22932780	     -6.00845382	    -21.48336534	     16.67876752	     19.47891562	      6.72963522	      7.57194496	      4.20515455	    -15.95427937
      3.80000000	    -10.03743293	     -6.47817585	     12.07796812	     -1.19198581	     -0.05782023	      0.60149544	     39.01186628	      0.54633589	    -19.41317690	    -19.04727726	     -9.20334197	     -3.11050141	      5.52198323	     -5.06311079	     -5.90538495	     -6.19334310	    -22.47073945	     16.01139010	     19.52678697	      7.38311205	      7.75692827	      4.74986432	    -15.94488727
      3.80500000	    -10.04089933	     -6.92230035	     11.92160376	     -1.18453387	     -0.05849274	      0.60180292	     39.19560182	      1.09134888	    -19.00640785	    -19.94800139	     -9.95784615	     -4.21687877	      5.35984687	     -4.91115675	     -6.58473318	     -6.45589699	    -23.52172472	     15.22012014	     19.61672295	      8.20679368	      7.93397013	      5.30368314	    -15.86611772
      3.81000000	    -10.04521546	     -7.35697409	     11.74154204	     -1.17708256	     -0.05906396	      0.60215033	     39.37746610	      1.65173052	    -18.57563070	    -20.87234051	    -10.50611804	     -5.28868842	      5.11003262	     -4.70911498	     -7.26508035	     -6.73724994	    -24.66163684	     14.27103691	     19.70185458	      9.17740343	      8.10534314	      5.85089117	    -15.73592800
      3.81500000	    -10.04216461	     -7.76427345	     11.52178574	     -1.16962053	     -0.05952345	      0.60256618	     39.54188232	      2.22548630	    -18.12885896	    -21.81225234	    -10.84681752	     -6.29226906	      4.79665135	     -4.47697112	     -7.93524524	     -7.07970920	    -25.87398825	     13.12071459	     19.79237996	     10.37910550	      8.25657087	      6.37316337	    -15.54974131
      3.82000000	    -10.05195092	     -8.17426790	     11.31793507	     -1.16219903	     -0.05988083	      0.60295760	     39.69057801	      2.80591300	    -17.67044701	    -22.71463553	    -11.02149649	     -7.22728817	      4.45728133	     -4.15865728	     -8.60885845	     -7.32736337	    -27.19868844	     11.83965277	     19.82647412	     11.52671863	      8.41734250	      6.89363229	    -15.39961595
      3.82500000	    -10.01351247	     -8.52608031	     11.03359926	     -1.15475430	     -0.06008205	      0.60341776	     39.76358712	      3.39611130	    -17.24052466	    -23.61553598	    -10.99298919	     -7.94575282	      4.08805477	     -3.88821312	     -9.24300108	     -7.69269484	    -28.53500023	     10.27999166	     19.79427125	     13.16765114	      8.49801906	      7.38141886	    -15.10112154
      3.83000000	    -10.01714231	     -8.87904703	     10.79296044	     -1.14734419	     -0.06019812	      0.60387164	     39.82356034	      3.98486440	    -16.77171067	    -24.41683177	    -10.86893523	     -8.68867206	      3.75374903	     -3.47886296	     -9.88529335	     -7.95349565	    -30.01348944	      8.61633017	     19.76380016	     14.47342162	      8.62876514	      7.84472910	    -14.91843974
      3.83500000	    -10.01334488	     -9.19810794	     10.55490717	     -1.13998717	     -0.06019346	      0.60435925	     39.82889443	      4.55985503	    -16.33727941	    -25.14951404	    -10.64980289	     -9.38462205	      3.44940974	     -3.01478794	    -10.50868495	     -8.18536670	    -31.57516990	      6.79708550	     19.71804306	     15.74344341	      8.73394441	      8.26748350	    -14.72947261
      3.84000000	    -10.04224624	     -9.51051189	     10.35383845	     -1.13269662	     -0.06014047	      0.60485824	     39.81510898	      5.12118575	    -15.92498714	    -25.78613952	    -10.35575323	    -10.08778551	      3.20876504	     -2.41700639	    -11.13945381	     -8.34165799	    -33.27429398	      4.93584703	     19.72169295	     16.67618101	      8.87110526	      8.66087988	    -14.61647551
      3.84500000	    -10.04662355	     -9.79347576	     10.10975965	     -1.12540990	     -0.05994769	      0.60542436	     39.71970308	      5.69762278	    -15.52619455	    -26.34269318	     -9.99057132	    -10.65689293	      2.96911629	     -1.81472789	    -11.75143495	     -8.52232975	    -34.98846344	      2.89919312	     19.59744781	     17.76902707	      8.96665944	      9.03066894	    -14.42164096
      3.85000000	    -10.00189551	    -10.01690151	      9.88564824	     -1.11828152	     -0.05958616	      0.60594967	     39.51891108	      6.21508720	    -15.17390755	    -26.82644915	     -9.53791585	    -11.03385666	      2.74210091	     -1.20162882	    -12.29567888	     -8.60768408	    -36.73627973	      0.76513576	     19.31498078	     18.88366786	      8.97035951	      9.35053078	    -14.22310335
      3.85500000	    -10.02278897	    -10.26999427	      9.69528805	     -1.11112927	     -0.05919538	      0.60648138	     39.32316198	      6.73487119	    -14.89785286	    -27.18563886	     -9.08938705	    -11.44302252	      2.60030299	     -0.42598263	    -12.87354902	     -8.61392185	    -38.58895121	     -1.28948638	     19.13842633	     19.38210076	      9.07537931	      9.66783839	    -14.10327516
      3.86000000	    -10.02092463	    -10.48713198	      9.50719898	     -1.10408300	     -0.05871229	      0.60703189	     39.05527903	      7.22743351	    -14.64613818	    -27.47319801	     -8.57224339	    -11.74864849	      2.46372470	      0.38329898	    -13.40811289	     -8.57250661	    -40.45996752	     -3.33399721	     18.81535776	     19.94251761	      9.13157116	      9.95007223	    -13.96791874
      3.86500000	     -9.99958738	    -10.69436979	      9.34148791	     -1.09715315	     -0.05812698	      0.60754015	     38.71757369	      7.69372536	    -14.44983731	    -27.67211267	     -8.02798704	    -11.91379913	      2.38470680	      1.24555128	    -13.91769565	     -8.45073627	    -42.37078858	     -5.27455038	     18.41415057	     20.29637312	      9.15505244	     10.22378590	    -13.84536399
